<svg width="24" height="25" viewBox="0 0 24 25" fill="none" xmlns="http://www.w3.org/2000/svg">
<path d="M5 24.25C3.34 24.25 1.78 23.37 0.939999 21.94C0.489999 21.22 0.25 20.37 0.25 19.5C0.25 16.88 2.38 14.75 5 14.75C7.62 14.75 9.75 16.88 9.75 19.5C9.75 20.37 9.51 21.22 9.06 21.95C8.22 23.37 6.66 24.25 5 24.25ZM5 16.25C3.21 16.25 1.75 17.71 1.75 19.5C1.75 20.09 1.91 20.67 2.22 21.17C2.81 22.17 3.85 22.75 5 22.75C6.15 22.75 7.19 22.16 7.78 21.18C8.09 20.67 8.25 20.1 8.25 19.5C8.25 17.71 6.79 16.25 5 16.25Z" fill="#007BFF"/>
<path d="M4.42988 21.2401C4.23988 21.2401 4.04988 21.1701 3.89988 21.0201L2.90988 20.0301C2.61988 19.7401 2.61988 19.26 2.90988 18.97C3.19988 18.68 3.67988 18.68 3.96988 18.97L4.44988 19.4501L6.04988 17.97C6.34988 17.69 6.82988 17.7101 7.10988 18.0101C7.38988 18.3101 7.36988 18.7901 7.06988 19.0701L4.93988 21.04C4.78988 21.17 4.60988 21.2401 4.42988 21.2401Z" fill="#007BFF"/>
<path d="M6.19004 8.30995C5.95004 8.30995 5.73005 8.19995 5.58005 7.99995C5.41005 7.76995 5.39005 7.46992 5.52005 7.21992C5.69005 6.87992 5.93005 6.54995 6.24005 6.24995L9.49005 2.98994C11.15 1.33994 13.85 1.33994 15.51 2.98994L17.26 4.76997C18 5.49997 18.45 6.47997 18.5 7.51997C18.51 7.74997 18.42 7.96995 18.25 8.11995C18.08 8.26995 17.85 8.33994 17.63 8.29994C17.43 8.26994 17.22 8.25996 17 8.25996H7.00005C6.76005 8.25996 6.53005 8.27995 6.30005 8.30995C6.27005 8.30995 6.23004 8.30995 6.19004 8.30995ZM7.86005 6.74995H16.82C16.69 6.40995 16.48 6.09996 16.2 5.81996L14.44 4.03993C13.37 2.97993 11.62 2.97993 10.54 4.03993L7.86005 6.74995Z" fill="#007BFF"/>
<path d="M17 23.25H7.62998C7.30998 23.25 7.02998 23.05 6.91998 22.76C6.80998 22.46 6.89998 22.13 7.13998 21.93C7.37998 21.73 7.59998 21.47 7.75998 21.19C8.07998 20.68 8.23998 20.1 8.23998 19.51C8.23998 17.72 6.77998 16.26 4.98998 16.26C4.05998 16.26 3.16998 16.66 2.54998 17.37C2.33998 17.6 2.00998 17.69 1.71998 17.58C1.42998 17.47 1.22998 17.19 1.22998 16.88V12.5C1.22998 9.42 3.12998 7.19001 6.07998 6.82001C6.34998 6.78001 6.65998 6.75 6.97998 6.75H16.98C17.22 6.75 17.53 6.76 17.85 6.81C20.8 7.15 22.73 9.39 22.73 12.5V17.5C22.75 20.94 20.44 23.25 17 23.25ZM9.17998 21.75H17C19.58 21.75 21.25 20.08 21.25 17.5V12.5C21.25 10.16 19.88 8.54998 17.66 8.28998C17.42 8.24998 17.21 8.25 17 8.25H6.99998C6.75998 8.25 6.52998 8.26999 6.29998 8.29999C4.09998 8.57999 2.74998 10.18 2.74998 12.5V15.32C3.42998 14.95 4.20998 14.75 4.99998 14.75C7.61998 14.75 9.74998 16.88 9.74998 19.5C9.74998 20.29 9.54998 21.07 9.17998 21.75Z" fill="#007BFF"/>
<path d="M22 17.75H19C17.48 17.75 16.25 16.52 16.25 15C16.25 13.48 17.48 12.25 19 12.25H22C22.41 12.25 22.75 12.59 22.75 13C22.75 13.41 22.41 13.75 22 13.75H19C18.31 13.75 17.75 14.31 17.75 15C17.75 15.69 18.31 16.25 19 16.25H22C22.41 16.25 22.75 16.59 22.75 17C22.75 17.41 22.41 17.75 22 17.75Z" fill="#007BFF"/>
</svg>
