<svg width="32" height="32" viewBox="0 0 32 32" fill="none" xmlns="http://www.w3.org/2000/svg">
<path d="M14.5731 30.3334C13.9331 30.3334 13.2931 30.1734 12.7064 29.8534C11.5198 29.1867 10.813 28 10.813 26.6534V19.5201C10.813 18.8401 10.373 17.84 9.9597 17.32L4.89305 12C4.05305 11.16 3.39972 9.69336 3.39972 8.61336V5.52006C3.39972 3.37339 5.02641 1.69336 7.09308 1.69336H24.8797C26.9197 1.69336 28.5731 3.34672 28.5731 5.38672V8.34672C28.5731 9.74672 27.7331 11.36 26.9331 12.1467C26.5464 12.5334 25.9064 12.5334 25.5198 12.1467C25.1331 11.76 25.1331 11.12 25.5198 10.7334C26.0131 10.24 26.5731 9.13339 26.5731 8.34672V5.38672C26.5731 4.45339 25.813 3.69336 24.8797 3.69336H7.09308C6.14641 3.69336 5.39972 4.49339 5.39972 5.52006V8.61336C5.39972 9.1067 5.79972 10.0801 6.31972 10.6001L11.4531 16C12.1331 16.84 12.7997 18.2534 12.7997 19.5201V26.6534C12.7997 27.5334 13.3997 27.96 13.6664 28.1067C14.2397 28.4267 14.9198 28.4134 15.4531 28.0934L17.3197 26.8934C17.7064 26.6667 18.0797 25.9334 18.0797 25.44C18.0797 24.8934 18.5331 24.44 19.0797 24.44C19.6264 24.44 20.0797 24.8934 20.0797 25.44C20.0797 26.64 19.333 28.0134 18.3864 28.5867L16.5331 29.7867C15.9331 30.1467 15.2531 30.3334 14.5731 30.3334Z" fill="#292D32"/>
<path d="M21.4268 23.0266C18.5202 23.0266 16.1602 20.6666 16.1602 17.76C16.1602 14.8533 18.5202 12.4933 21.4268 12.4933C24.3335 12.4933 26.6935 14.8533 26.6935 17.76C26.6935 20.6666 24.3335 23.0266 21.4268 23.0266ZM21.4268 14.4933C19.6268 14.4933 18.1602 15.96 18.1602 17.76C18.1602 19.56 19.6268 21.0266 21.4268 21.0266C23.2268 21.0266 24.6935 19.56 24.6935 17.76C24.6935 15.96 23.2268 14.4933 21.4268 14.4933Z" fill="#292D32"/>
<path d="M26.4933 23.8267C26.24 23.8267 25.9867 23.7334 25.7867 23.5334L24.4534 22.2C24.0667 21.8134 24.0667 21.1734 24.4534 20.7867C24.8401 20.4 25.4801 20.4 25.8667 20.7867L27.2001 22.12C27.5867 22.5067 27.5867 23.1467 27.2001 23.5334C27.0134 23.72 26.7467 23.8267 26.4933 23.8267Z" fill="#292D32"/>
</svg>
