<svg width="25" height="24" viewBox="0 0 25 24" fill="none" xmlns="http://www.w3.org/2000/svg">
<path d="M17.5 21.25H7.5C3.85 21.25 1.75 19.15 1.75 15.5V8.5C1.75 4.85 3.85 2.75 7.5 2.75H17.5C21.15 2.75 23.25 4.85 23.25 8.5V15.5C23.25 19.15 21.15 21.25 17.5 21.25ZM7.5 4.25C4.64 4.25 3.25 5.64 3.25 8.5V15.5C3.25 18.36 4.64 19.75 7.5 19.75H17.5C20.36 19.75 21.75 18.36 21.75 15.5V8.5C21.75 5.64 20.36 4.25 17.5 4.25H7.5Z" fill="#007BFF"/>
<path d="M12.5 15.75C10.43 15.75 8.75 14.07 8.75 12C8.75 9.93 10.43 8.25 12.5 8.25C14.57 8.25 16.25 9.93 16.25 12C16.25 14.07 14.57 15.75 12.5 15.75ZM12.5 9.75C11.26 9.75 10.25 10.76 10.25 12C10.25 13.24 11.26 14.25 12.5 14.25C13.74 14.25 14.75 13.24 14.75 12C14.75 10.76 13.74 9.75 12.5 9.75Z" fill="#007BFF"/>
<path d="M5 10.75C4.59 10.75 4.25 10.41 4.25 10V8.5C4.25 6.71 5.71 5.25 7.5 5.25H9C9.41 5.25 9.75 5.59 9.75 6C9.75 6.41 9.41 6.75 9 6.75H7.5C6.54 6.75 5.75 7.54 5.75 8.5V10C5.75 10.41 5.41 10.75 5 10.75Z" fill="#007BFF"/>
<path d="M20 10.75C19.59 10.75 19.25 10.41 19.25 10V8.5C19.25 7.54 18.46 6.75 17.5 6.75H16C15.59 6.75 15.25 6.41 15.25 6C15.25 5.59 15.59 5.25 16 5.25H17.5C19.29 5.25 20.75 6.71 20.75 8.5V10C20.75 10.41 20.41 10.75 20 10.75Z" fill="#007BFF"/>
<path d="M9 18.75H7.5C5.71 18.75 4.25 17.29 4.25 15.5V14C4.25 13.59 4.59 13.25 5 13.25C5.41 13.25 5.75 13.59 5.75 14V15.5C5.75 16.46 6.54 17.25 7.5 17.25H9C9.41 17.25 9.75 17.59 9.75 18C9.75 18.41 9.41 18.75 9 18.75Z" fill="#007BFF"/>
<path d="M17.5 18.75H16C15.59 18.75 15.25 18.41 15.25 18C15.25 17.59 15.59 17.25 16 17.25H17.5C18.46 17.25 19.25 16.46 19.25 15.5V14C19.25 13.59 19.59 13.25 20 13.25C20.41 13.25 20.75 13.59 20.75 14V15.5C20.75 17.29 19.29 18.75 17.5 18.75Z" fill="#007BFF"/>
</svg>
