<svg width="25" height="24" viewBox="0 0 25 24" fill="none" xmlns="http://www.w3.org/2000/svg">
<path opacity="0.4" d="M12.4207 2C9.80065 2 7.67065 4.13 7.67065 6.75C7.67065 9.32 9.68065 11.4 12.3007 11.49C12.3807 11.48 12.4607 11.48 12.5207 11.49C12.5407 11.49 12.5507 11.49 12.5707 11.49C12.5807 11.49 12.5807 11.49 12.5907 11.49C15.1507 11.4 17.1607 9.32 17.1707 6.75C17.1707 4.13 15.0407 2 12.4207 2Z" fill="#007BFF"/>
<path d="M17.5006 14.15C14.7106 12.29 10.1606 12.29 7.35062 14.15C6.08062 15 5.38062 16.15 5.38062 17.38C5.38062 18.61 6.08062 19.75 7.34062 20.59C8.74062 21.53 10.5806 22 12.4206 22C14.2606 22 16.1006 21.53 17.5006 20.59C18.7606 19.74 19.4606 18.6 19.4606 17.36C19.4506 16.13 18.7606 14.99 17.5006 14.15Z" fill="#007BFF"/>
</svg>
