<svg width="42" height="42" viewBox="0 0 42 42" fill="none" xmlns="http://www.w3.org/2000/svg">
<path d="M0.299133 28.8384C0.39326 28.4257 0.469204 28.0077 0.584724 27.6004C1.11954 25.7231 2.22553 24.2114 3.65027 22.9156C4.9135 21.7674 6.35001 20.8843 7.88278 20.1424C8.30529 19.9382 8.46252 19.9927 8.68179 20.4086C8.90107 20.8245 9.1043 21.2083 9.31715 21.6081C9.55782 22.0593 9.50647 22.2207 9.03049 22.4484C7.51911 23.1733 6.10079 24.0392 4.92313 25.2494C3.85885 26.3421 3.08016 27.5854 2.91116 29.1474C2.75927 30.5201 3.17001 31.726 3.92517 32.8358C4.94773 34.34 6.37247 35.3877 7.93626 36.2569C10.4071 37.6307 13.0769 38.4132 15.8579 38.8494C18.2178 39.2248 20.613 39.3292 22.9966 39.1605C25.9744 38.9467 28.8721 38.3641 31.652 37.2362C32.0895 37.0598 32.359 36.8588 32.5259 36.3638C32.9356 35.145 34.2886 34.5089 35.5465 34.8371C36.1587 34.9999 36.6896 35.3818 37.0385 35.9102C37.3873 36.4387 37.5298 37.0768 37.4387 37.7034C37.2761 38.9232 36.1744 39.8629 34.9037 39.88C34.3953 39.8799 33.8971 39.7369 33.4661 39.4674C33.4031 39.4352 33.3342 39.4162 33.2636 39.4114C33.193 39.4066 33.1221 39.4162 33.0554 39.4396C30.8525 40.3845 28.5358 41.0382 26.1638 41.3843C25.0941 41.5446 24.0192 41.6163 22.9463 41.7317C22.842 41.7479 22.7388 41.7704 22.6372 41.7991H18.8743C18.7468 41.7648 18.6171 41.7398 18.486 41.7242C16.639 41.6224 14.8054 41.3505 13.0084 40.9117C9.87443 40.1527 6.9244 38.9799 4.36371 36.971C2.6106 35.5994 1.22757 33.9412 0.591141 31.7549C0.473482 31.3486 0.3954 30.9306 0.299133 30.5201V28.8384Z" fill="#1D4D4F"/>
<path d="M20.805 0.799194C23.5775 0.812182 26.2559 1.80515 28.3662 3.60234C30.4765 5.39952 31.8826 7.88502 32.3356 10.6189C32.7784 13.282 32.2137 15.7762 31.1505 18.1945C29.8017 21.2628 27.886 23.9676 25.6708 26.4543C24.4129 27.8666 23.0587 29.1944 21.7185 30.5297C21.1559 31.0899 20.466 31.0771 19.8916 30.5468C16.4741 27.3887 13.4524 23.9077 11.2212 19.796C10.2446 17.9956 9.48412 16.1055 9.21671 14.0656C8.77817 10.7268 9.6328 7.71947 11.7614 5.1098C13.6696 2.77275 16.1554 1.40217 19.1332 0.940315C19.6841 0.850511 20.2467 0.843027 20.805 0.799194ZM27.2014 12.3647C27.195 10.6735 26.5233 9.05273 25.3313 7.85249C24.1392 6.65225 22.5226 5.96891 20.8307 5.95011C17.3191 5.93086 14.4023 8.82598 14.3937 12.339C14.3851 15.8521 17.2945 18.759 20.805 18.7536C24.3155 18.7483 27.196 15.8606 27.2014 12.3647Z" fill="#1D4D4F"/>
<path d="M20.929 35.4529C19.7289 35.3813 18.7181 35.3332 17.7084 35.2541C17.2463 35.2177 17.1564 35.0231 17.272 34.5827C17.396 34.108 17.4998 33.6269 17.5789 33.1426C17.6335 32.809 17.81 32.6775 18.1245 32.7075C20.6488 32.9463 23.1936 32.8547 25.6942 32.4349C27.3393 32.1612 28.9512 31.7538 30.4177 30.9189C30.7296 30.7398 31.0215 30.528 31.2884 30.287C31.7996 29.8252 31.8125 29.4318 31.2819 28.9892C30.8672 28.6574 30.4224 28.365 29.9535 28.1157C29.608 27.9211 29.2229 27.795 28.8571 27.6389C28.4592 27.4678 28.3918 27.2358 28.6539 26.8905C28.9844 26.4565 29.332 26.0352 29.6615 25.598C29.823 25.3842 30.023 25.3211 30.2583 25.4173C31.4349 25.9005 32.5505 26.4864 33.4041 27.4721C34.5218 28.755 34.5454 30.4271 33.4618 31.7378C32.7398 32.6113 31.7954 33.1779 30.7781 33.6333C28.8903 34.479 26.8911 34.9162 24.8492 35.1461C23.4876 35.299 22.1195 35.3631 20.929 35.4529Z" fill="#1D4D4F"/>
<path d="M41.2991 29.0683C41.2991 31.3305 40.7525 32.8625 39.8016 34.263C39.5534 34.6318 39.3031 34.6222 38.9994 34.2897C38.6821 33.9318 38.345 33.592 37.9896 33.2719C37.719 33.0346 37.7073 32.8325 37.8474 32.5097C38.1469 31.8212 38.4892 31.1263 38.6325 30.3993C38.9598 28.7604 38.3576 27.3363 37.3714 26.0577C36.1884 24.5257 34.6214 23.4811 32.9175 22.6216C31.9815 22.1501 31.9794 22.1555 32.4896 21.22C32.655 20.9164 32.8155 20.6103 32.9709 20.3016C33.1025 20.0397 33.3154 19.9563 33.5667 20.0771C36.4451 21.4509 38.9823 23.2214 40.4701 26.171C41.0188 27.2486 41.3034 28.4054 41.2991 29.0683Z" fill="#1D4D4F"/>
<path d="M7.33304 29.7835C7.35657 28.4375 7.9331 27.5384 8.81447 26.8916C9.57818 26.3282 10.451 25.9112 11.2842 25.4451C11.5581 25.2911 11.7859 25.3906 11.9731 25.6439C12.2736 26.0513 12.5956 26.4436 12.9058 26.8435C13.216 27.2433 13.1475 27.4528 12.6919 27.6656C12.0651 27.9543 11.45 28.2686 10.8318 28.5743C10.7846 28.5996 10.7402 28.6297 10.6992 28.6641C9.68942 29.4029 9.69156 29.8754 10.6895 30.6163C10.8703 30.751 10.9869 30.735 11.1783 30.627C11.6412 30.3553 12.1775 30.2353 12.7121 30.2841C13.2466 30.3329 13.7524 30.5479 14.1583 30.899C14.5642 31.25 14.8498 31.7194 14.975 32.2411C15.1001 32.7628 15.0585 33.3106 14.856 33.8074C14.6535 34.3043 14.3003 34.7252 13.846 35.0109C13.3917 35.2967 12.8592 35.4329 12.3235 35.4005C11.7877 35.368 11.2756 35.1686 10.8591 34.8301C10.4426 34.4916 10.1428 34.0312 10.0018 33.5136C9.97634 33.3906 9.92416 33.2748 9.84892 33.1743C9.77369 33.0738 9.67724 32.991 9.56642 32.932C8.31282 32.1718 7.40684 31.1616 7.33304 29.7835Z" fill="#1D4D4F"/>
<path d="M24.6384 12.3551C24.6378 13.1156 24.4112 13.8588 23.9875 14.4904C23.5638 15.122 22.962 15.6137 22.2584 15.9031C21.5548 16.1925 20.7811 16.2666 20.0353 16.116C19.2895 15.9653 18.6053 15.5968 18.0693 15.057C17.5334 14.5173 17.1698 13.8306 17.0247 13.0841C16.8796 12.3376 16.9596 11.5648 17.2544 10.8637C17.5492 10.1627 18.0457 9.5649 18.6808 9.14617C19.3159 8.72745 20.0612 8.50663 20.822 8.51171C21.3255 8.51198 21.824 8.61179 22.2888 8.80539C22.7536 8.99899 23.1755 9.28257 23.5302 9.63978C23.8849 9.997 24.1655 10.4208 24.3556 10.8868C24.5458 11.3528 24.6419 11.8518 24.6384 12.3551Z" fill="#1D4D4F"/>
</svg>
