<svg width="16" height="16" viewBox="0 0 16 16" fill="none" xmlns="http://www.w3.org/2000/svg">
<path d="M10.3267 13.84C10.2 13.84 10.0733 13.7934 9.97334 13.6934C9.78001 13.5 9.78001 13.18 9.97334 12.9867L13.3133 9.64671C13.5067 9.45338 13.8267 9.45338 14.02 9.64671C14.2133 9.84004 14.2133 10.16 14.02 10.3534L10.68 13.6934C10.58 13.7867 10.4533 13.84 10.3267 13.84Z" fill="#292D32"/>
<path d="M13.6667 10.4934H2.33334C2.06001 10.4934 1.83334 10.2667 1.83334 9.99341C1.83334 9.72007 2.06001 9.49341 2.33334 9.49341H13.6667C13.94 9.49341 14.1667 9.72007 14.1667 9.99341C14.1667 10.2667 13.94 10.4934 13.6667 10.4934Z" fill="#292D32"/>
<path d="M2.33332 6.50655C2.20666 6.50655 2.07999 6.45988 1.97999 6.35988C1.78666 6.16655 1.78666 5.84655 1.97999 5.65321L5.31999 2.31321C5.51332 2.11988 5.83332 2.11988 6.02666 2.31321C6.21999 2.50655 6.21999 2.82655 6.02666 3.01988L2.68666 6.35988C2.59332 6.45321 2.45999 6.50655 2.33332 6.50655Z" fill="#292D32"/>
<path d="M13.6667 6.50659H2.33334C2.06001 6.50659 1.83334 6.27993 1.83334 6.00659C1.83334 5.73326 2.06001 5.50659 2.33334 5.50659H13.6667C13.94 5.50659 14.1667 5.73326 14.1667 6.00659C14.1667 6.27993 13.94 6.50659 13.6667 6.50659Z" fill="#292D32"/>
</svg>
