<svg width="25" height="24" viewBox="0 0 25 24" fill="none" xmlns="http://www.w3.org/2000/svg">
<path opacity="0.4" d="M20.6331 6.82006L14.8731 2.79006C13.3031 1.69006 10.8931 1.75006 9.38311 2.92006L4.37311 6.83006C3.37311 7.61006 2.58311 9.21006 2.58311 10.4701V17.3701C2.58311 19.9201 4.65311 22.0001 7.20311 22.0001H17.9831C20.5331 22.0001 22.6031 19.9301 22.6031 17.3801V10.6001C22.6031 9.25006 21.7331 7.59006 20.6331 6.82006Z" fill="#007BFF"/>
<path d="M12.5931 18.75C12.1831 18.75 11.8431 18.41 11.8431 18V15C11.8431 14.59 12.1831 14.25 12.5931 14.25C13.0031 14.25 13.3431 14.59 13.3431 15V18C13.3431 18.41 13.0031 18.75 12.5931 18.75Z" fill="#007BFF"/>
</svg>
