<svg width="30" height="30" viewBox="0 0 30 30" fill="none" xmlns="http://www.w3.org/2000/svg">
<path d="M15 30C23.2842 30 30 23.2842 30 15C30 6.71572 23.2842 0 15 0C6.71572 0 0 6.71572 0 15C0 23.2842 6.71572 30 15 30Z" fill="#1977F3"/>
<path d="M20.8388 19.3369L21.5033 15H17.3435V12.186C17.3435 11.0005 17.9236 9.84246 19.7883 9.84246H21.6805V6.151C21.6805 6.151 19.9634 5.85779 18.3223 5.85779C14.8966 5.85779 12.6564 7.93344 12.6564 11.6945V15H8.84686V19.3369H12.6564V29.8185C13.42 29.9388 14.2026 29.9999 15 29.9999C15.7973 29.9999 16.5799 29.9367 17.3435 29.8185V19.3369H20.8388Z" fill="white"/>
</svg>
