<svg width="25" height="24" viewBox="0 0 25 24" fill="none" xmlns="http://www.w3.org/2000/svg">
<path d="M19.717 8.75C17.647 8.75 15.967 7.07 15.967 5C15.967 2.93 17.647 1.25 19.717 1.25C21.787 1.25 23.467 2.93 23.467 5C23.467 7.07 21.787 8.75 19.717 8.75ZM19.717 2.75C18.477 2.75 17.467 3.76 17.467 5C17.467 6.24 18.477 7.25 19.717 7.25C20.957 7.25 21.967 6.24 21.967 5C21.967 3.76 20.957 2.75 19.717 2.75Z" fill="#292D32"/>
<path d="M12.717 13.75H7.71704C7.30704 13.75 6.96704 13.41 6.96704 13C6.96704 12.59 7.30704 12.25 7.71704 12.25H12.717C13.127 12.25 13.467 12.59 13.467 13C13.467 13.41 13.127 13.75 12.717 13.75Z" fill="#292D32"/>
<path d="M16.717 17.75H7.71704C7.30704 17.75 6.96704 17.41 6.96704 17C6.96704 16.59 7.30704 16.25 7.71704 16.25H16.717C17.127 16.25 17.467 16.59 17.467 17C17.467 17.41 17.127 17.75 16.717 17.75Z" fill="#292D32"/>
<path d="M15.717 22.75H9.71704C4.28704 22.75 1.96704 20.43 1.96704 15V9C1.96704 3.57 4.28704 1.25 9.71704 1.25H14.717C15.127 1.25 15.467 1.59 15.467 2C15.467 2.41 15.127 2.75 14.717 2.75H9.71704C5.10704 2.75 3.46704 4.39 3.46704 9V15C3.46704 19.61 5.10704 21.25 9.71704 21.25H15.717C20.327 21.25 21.967 19.61 21.967 15V10C21.967 9.59 22.307 9.25 22.717 9.25C23.127 9.25 23.467 9.59 23.467 10V15C23.467 20.43 21.147 22.75 15.717 22.75Z" fill="#292D32"/>
</svg>
