<svg width="25" height="24" viewBox="0 0 25 24" fill="none" xmlns="http://www.w3.org/2000/svg">
<path opacity="0.4" d="M8.85655 3.33997V17.67C8.51655 17.68 8.17655 17.76 7.92655 17.91L5.57655 19.25C3.93655 20.19 2.58655 19.41 2.58655 17.51V7.77997C2.58655 7.14997 3.03655 6.36997 3.59655 6.04997L7.92655 3.56997C8.17655 3.42997 8.51655 3.34997 8.85655 3.33997Z" fill="#007BFF"/>
<path d="M16.0266 6.33006V20.6601C15.6766 20.6701 15.3366 20.6101 15.0666 20.4801L9.81657 17.8501C9.54657 17.7201 9.20657 17.6601 8.85657 17.6701V3.34006C9.20657 3.33006 9.54657 3.39006 9.81657 3.52006L15.0666 6.15006C15.3366 6.28006 15.6766 6.34006 16.0266 6.33006Z" fill="#007BFF"/>
<path opacity="0.4" d="M22.2966 6.48994V16.2199C22.2966 16.8499 21.8466 17.6299 21.2866 17.9499L16.9566 20.4299C16.7066 20.5699 16.3666 20.6499 16.0266 20.6599V6.32994C16.3666 6.31994 16.7066 6.23994 16.9566 6.08994L19.3066 4.74994C20.9466 3.80994 22.2966 4.58994 22.2966 6.48994Z" fill="#007BFF"/>
</svg>
