<svg width="25" height="24" viewBox="0 0 25 24" fill="none" xmlns="http://www.w3.org/2000/svg">
<path opacity="0.4" d="M21.12 8.45C20.07 3.83 16.04 1.75 12.5 1.75C12.5 1.75 12.5 1.75 12.49 1.75C8.96 1.75 4.92 3.82 3.87 8.44C2.7 13.6 5.86 17.97 8.72 20.72C9.78 21.74 11.14 22.25 12.5 22.25C13.86 22.25 15.22 21.74 16.27 20.72C19.13 17.97 22.29 13.61 21.12 8.45Z" fill="#007BFF"/>
<path d="M12.5 13.46C14.2397 13.46 15.65 12.0497 15.65 10.31C15.65 8.57034 14.2397 7.16003 12.5 7.16003C10.7603 7.16003 9.35001 8.57034 9.35001 10.31C9.35001 12.0497 10.7603 13.46 12.5 13.46Z" fill="#007BFF"/>
</svg>
