<svg width="24" height="25" viewBox="0 0 24 25" fill="none" xmlns="http://www.w3.org/2000/svg">
<path d="M12 17.75C11.4696 17.75 10.9609 17.5393 10.5858 17.1642C10.2107 16.7891 10 16.2804 10 15.75C10 14.64 10.89 13.75 12 13.75C12.5304 13.75 13.0391 13.9607 13.4142 14.3358C13.7893 14.7109 14 15.2196 14 15.75C14 16.2804 13.7893 16.7891 13.4142 17.1642C13.0391 17.5393 12.5304 17.75 12 17.75ZM18 20.75V10.75H6V20.75H18ZM18 8.75C18.5304 8.75 19.0391 8.96071 19.4142 9.33579C19.7893 9.71086 20 10.2196 20 10.75V20.75C20 21.2804 19.7893 21.7891 19.4142 22.1642C19.0391 22.5393 18.5304 22.75 18 22.75H6C5.46957 22.75 4.96086 22.5393 4.58579 22.1642C4.21071 21.7891 4 21.2804 4 20.75V10.75C4 9.64 4.89 8.75 6 8.75H7V6.75C7 5.42392 7.52678 4.15215 8.46447 3.21447C9.40215 2.27678 10.6739 1.75 12 1.75C12.6566 1.75 13.3068 1.87933 13.9134 2.1306C14.52 2.38188 15.0712 2.75017 15.5355 3.21447C15.9998 3.67876 16.3681 4.22995 16.6194 4.83658C16.8707 5.44321 17 6.09339 17 6.75V8.75H18ZM12 3.75C11.2044 3.75 10.4413 4.06607 9.87868 4.62868C9.31607 5.19129 9 5.95435 9 6.75V8.75H15V6.75C15 5.95435 14.6839 5.19129 14.1213 4.62868C13.5587 4.06607 12.7956 3.75 12 3.75Z" fill="#292D32"/>
</svg>
