<svg width="32" height="32" viewBox="0 0 32 32" fill="none" xmlns="http://www.w3.org/2000/svg">
<path opacity="0.4" d="M22.6667 24.5733H17.3334L11.4001 28.52C10.5201 29.1067 9.33342 28.48 9.33342 27.4133V24.5733C5.33341 24.5733 2.66675 21.9067 2.66675 17.9067V9.90666C2.66675 5.90666 5.33341 3.23999 9.33342 3.23999H22.6667C26.6667 3.23999 29.3334 5.90666 29.3334 9.90666V17.9067C29.3334 21.9067 26.6667 24.5733 22.6667 24.5733Z" fill="#007BFF"/>
<path d="M15.9999 16.1467C15.4533 16.1467 14.9999 15.6934 14.9999 15.1467V14.8668C14.9999 13.3201 16.1332 12.5601 16.5599 12.2668C17.0532 11.9334 17.2132 11.7068 17.2132 11.3601C17.2132 10.6934 16.6666 10.1467 15.9999 10.1467C15.3333 10.1467 14.7866 10.6934 14.7866 11.3601C14.7866 11.9068 14.3333 12.3601 13.7866 12.3601C13.24 12.3601 12.7866 11.9068 12.7866 11.3601C12.7866 9.58677 14.2266 8.14673 15.9999 8.14673C17.7733 8.14673 19.2132 9.58677 19.2132 11.3601C19.2132 12.8801 18.0933 13.6401 17.6799 13.9201C17.1599 14.2668 16.9999 14.4934 16.9999 14.8668V15.1467C16.9999 15.7067 16.5466 16.1467 15.9999 16.1467Z" fill="#007BFF"/>
<path d="M16 19.4666C15.44 19.4666 15 19.0132 15 18.4666C15 17.9199 15.4533 17.4666 16 17.4666C16.5467 17.4666 17 17.9199 17 18.4666C17 19.0132 16.56 19.4666 16 19.4666Z" fill="#007BFF"/>
</svg>
