<svg width="35" height="35" viewBox="0 0 35 35" fill="none" xmlns="http://www.w3.org/2000/svg">
<path opacity="0.4" d="M24.7917 13.125C24.7917 18.7687 19.8917 23.3333 13.8542 23.3333L12.4979 24.9666L11.6959 25.9292C11.0104 26.7458 9.69793 26.5708 9.24585 25.5937L7.29169 21.2916C4.63752 19.4249 2.91669 16.4645 2.91669 13.125C2.91669 7.48121 7.81669 2.91663 13.8542 2.91663C18.2584 2.91663 22.0646 5.35205 23.7709 8.85205C24.4271 10.15 24.7917 11.5937 24.7917 13.125Z" fill="#007BFF"/>
<path d="M32.0833 18.7541C32.0833 22.0937 30.3625 25.0542 27.7083 26.9208L25.7542 31.2228C25.3021 32.1999 23.9896 32.3896 23.3042 31.5583L21.1458 28.9624C17.6167 28.9624 14.4667 27.402 12.4979 24.9666L13.8542 23.3333C19.8917 23.3333 24.7917 18.7687 24.7917 13.125C24.7917 11.5937 24.4271 10.15 23.7708 8.85205C28.5396 9.9458 32.0833 13.9708 32.0833 18.7541Z" fill="#007BFF"/>
<path d="M17.5 14.2188H10.2083C9.6104 14.2188 9.11456 13.7229 9.11456 13.125C9.11456 12.5271 9.6104 12.0312 10.2083 12.0312H17.5C18.0979 12.0312 18.5937 12.5271 18.5937 13.125C18.5937 13.7229 18.0979 14.2188 17.5 14.2188Z" fill="#007BFF"/>
</svg>
