<svg width="42" height="42" viewBox="0 0 42 42" fill="none" xmlns="http://www.w3.org/2000/svg">
<g clip-path="url(#clip0_2_140)">
<path d="M33.8077 0.799133C34.5287 1.11336 35.1367 1.54076 35.2964 2.34281C35.3626 2.67243 35.3444 3.02401 35.3695 3.43163H35.8475C36.8297 3.43163 37.812 3.43163 38.7942 3.43163C39.5065 3.4319 40.1899 3.70334 40.6953 4.18679C41.2006 4.67023 41.4871 5.32648 41.4922 6.01249C41.4968 15.2504 41.4968 24.489 41.4922 33.7284C41.492 34.4148 41.21 35.0733 40.7079 35.5605C40.2057 36.0476 39.524 36.3238 38.8113 36.329C36.1064 36.3367 33.4015 36.329 30.6966 36.329C30.1582 36.329 29.8684 36.084 29.8775 35.6522C29.8867 35.2424 30.1696 35.0117 30.6898 35.0117C33.3091 35.0117 35.9285 35.0117 38.5478 35.0117C39.5586 35.0117 40.1244 34.4821 40.1255 33.5263C40.1255 26.2477 40.1255 18.9691 40.1255 11.6906V11.3467H1.86465V33.4417C1.86465 34.4986 2.39399 35.0095 3.48576 35.0095C6.0914 35.0095 8.69666 35.0095 11.3015 35.0095C11.783 35.0095 12.0602 35.2084 12.1104 35.5687C12.1697 35.9994 11.8697 36.3214 11.378 36.3247C10.1972 36.3312 9.01533 36.3247 7.83343 36.3247C6.32527 36.3247 4.81634 36.3247 3.30665 36.3247C1.68212 36.329 0.495667 35.1996 0.495667 33.6504C0.495667 24.4645 0.495667 15.2793 0.495667 6.09489C0.495667 4.56659 1.68668 3.43602 3.28269 3.43602L6.52833 3.42833C6.55343 3.42833 6.57853 3.40966 6.64242 3.38219C6.64242 3.23936 6.64242 3.07895 6.64242 2.91853C6.64242 1.90113 7.08277 1.27048 8.05247 0.890326C8.09983 0.865092 8.14388 0.834476 8.18367 0.799133L9.21041 0.799133C9.24835 0.832646 9.29051 0.861438 9.3359 0.884832C10.3067 1.26608 10.7437 1.89784 10.746 2.91084C10.746 3.07125 10.746 3.23167 10.746 3.41185H31.2237C31.2454 3.04159 31.2237 2.68231 31.2944 2.34062C31.4553 1.53966 32.0656 1.11226 32.7809 0.799133H33.8077ZM9.38039 4.40948C9.38039 3.90297 9.38609 3.39647 9.38039 2.88997C9.3724 2.42302 9.07807 2.10659 8.67992 2.12088C8.28178 2.13516 8.02509 2.4362 8.01596 2.88667C8.0076 3.89968 8.0076 4.91268 8.01596 5.92569C8.01596 6.40033 8.29889 6.71456 8.70046 6.71676C9.10203 6.71895 9.37697 6.40363 9.38495 5.93008C9.38495 5.42248 9.38039 4.91598 9.38039 4.40948ZM32.6144 4.38421C32.6144 4.89071 32.6144 5.39721 32.6144 5.90372C32.6144 6.41022 32.903 6.72774 33.3137 6.71566C33.7244 6.70357 33.9754 6.38605 33.9788 5.90921C33.9834 4.91085 33.9834 3.91176 33.9788 2.91194C33.9788 2.4373 33.6959 2.12307 33.3 2.12088C32.9041 2.11868 32.6224 2.43071 32.6155 2.90535C32.6098 3.39757 32.6144 3.89089 32.6144 4.38421Z" fill="#1D4D4F"/>
<path d="M34.2068 26.3141C34.1036 26.4884 33.9851 26.653 33.8528 26.8059C32.0313 28.6172 30.2029 30.4218 28.3674 32.2197C28.0732 32.5054 27.9969 32.7586 28.0688 33.1676C28.5297 35.7602 28.9662 38.3573 29.3784 40.9589C29.4127 41.1729 29.28 41.5191 29.1119 41.6311C28.9961 41.6911 28.8686 41.7246 28.7386 41.729C28.6086 41.7335 28.4792 41.7089 28.3597 41.6569C26.5058 40.7034 24.6696 39.7141 22.8289 38.7349C22.3168 38.4626 21.7969 38.2038 21.2947 37.9125C21.2062 37.8519 21.1018 37.8195 20.9949 37.8195C20.8881 37.8195 20.7837 37.8519 20.6952 37.9125C18.3723 39.1606 16.0394 40.3919 13.7132 41.6345C13.4112 41.7958 13.0893 41.9079 12.8415 41.6289C12.6751 41.4386 12.59 41.1891 12.6048 40.9353C13.0296 38.2934 13.4831 35.6571 13.9388 33.0219C13.9688 32.8953 13.9633 32.7627 13.9231 32.639C13.8828 32.5153 13.8094 32.4055 13.711 32.3217C11.8548 30.5021 10.0131 28.6714 8.16142 26.8519C7.91253 26.6065 7.69794 26.3622 7.81962 25.9791C7.93023 25.616 8.22447 25.5309 8.55852 25.485C10.7531 25.1712 12.9455 24.8351 15.1401 24.5136C15.5645 24.4701 15.9865 24.405 16.4044 24.3186C16.5891 24.2522 16.7412 24.1161 16.8292 23.9388C17.9995 21.5691 19.1466 19.1883 20.3224 16.8231C20.4465 16.5856 20.6535 16.4034 20.9031 16.3122C21.2969 16.2002 21.5159 16.4948 21.6774 16.8377C22.8112 19.1782 23.9616 21.512 25.0877 23.857C25.2459 24.1853 25.435 24.3119 25.7967 24.3623C28.1694 24.6917 30.5377 25.057 32.9082 25.4099C33.1526 25.4469 33.4004 25.4726 33.6437 25.5219C34.0132 25.5948 34.1692 25.8536 34.2068 26.3141Z" fill="#1D4D4F"/>
</g>
<defs>
<clipPath id="clip0_2_140">
<rect width="41" height="41" fill="white" transform="translate(0.495667 0.799133)"/>
</clipPath>
</defs>
</svg>
