<svg width="32" height="32" viewBox="0 0 32 32" fill="none" xmlns="http://www.w3.org/2000/svg">
<path opacity="0.4" d="M21.5867 2.66675H10.4267C5.56008 2.66675 2.66675 5.56008 2.66675 10.4134V21.5734C2.66675 26.4268 5.56008 29.3201 10.4134 29.3201H21.5734C26.4268 29.3201 29.3201 26.4268 29.3201 21.5734V10.4134C29.3334 5.56008 26.4401 2.66675 21.5867 2.66675Z" fill="#007BFF"/>
<path fill-rule="evenodd" clip-rule="evenodd" d="M21.6666 2.66701V16.5601C21.6666 17.4134 21.4133 18.0534 20.9733 18.3067C20.5199 18.5734 19.7999 18.4401 18.9999 17.9601L17.2399 16.9067C16.5599 16.4934 15.4399 16.4934 14.7599 16.9067L12.9999 17.9601C12.1999 18.4401 11.4799 18.5601 11.0266 18.3067C10.5866 18.0534 10.3333 17.4134 10.3333 16.5601V2.6671C10.3643 2.66687 10.3954 2.66675 10.4266 2.66675H21.5866C21.6133 2.66675 21.64 2.66684 21.6666 2.66701Z" fill="#007BFF"/>
</svg>
