<svg width="32" height="32" viewBox="0 0 32 32" fill="none" xmlns="http://www.w3.org/2000/svg">
<path opacity="0.4" d="M17.6534 2.66675C18.2801 2.66675 18.8001 3.17341 18.8001 3.81341V28.2001C18.8001 28.8267 18.2934 29.3467 17.6534 29.3467C9.80007 29.3467 4.32007 23.8667 4.32007 16.0134C4.32007 8.16008 9.8134 2.66675 17.6534 2.66675Z" fill="#007BFF"/>
<path d="M27.3866 15.3866L23.5999 11.5866C23.2133 11.2 22.5733 11.2 22.1866 11.5866C21.7999 11.9733 21.7999 12.6133 22.1866 13L24.2666 15.08H11.5066C10.9599 15.08 10.5066 15.5333 10.5066 16.08C10.5066 16.6266 10.9599 17.08 11.5066 17.08H24.2666L22.1866 19.16C21.7999 19.5466 21.7999 20.1866 22.1866 20.5733C22.3866 20.7733 22.6399 20.8666 22.8933 20.8666C23.1466 20.8666 23.3999 20.7733 23.5999 20.5733L27.3866 16.7733C27.7733 16.4 27.7733 15.7733 27.3866 15.3866Z" fill="#007BFF"/>
</svg>
