<svg width="25" height="24" viewBox="0 0 25 24" fill="none" xmlns="http://www.w3.org/2000/svg">
<path d="M18.3967 22.75H6.81669C4.07669 22.75 1.85669 20.52 1.85669 17.78V10.37C1.85669 9.00997 2.69669 7.29997 3.77669 6.45997L9.16669 2.25997C10.7867 0.999974 13.3767 0.939974 15.0567 2.11997L21.2367 6.44997C22.4267 7.27997 23.3567 9.05997 23.3567 10.51V17.79C23.3567 20.52 21.1367 22.75 18.3967 22.75ZM10.0867 3.43997L4.69669 7.63997C3.98669 8.19997 3.35669 9.46997 3.35669 10.37V17.78C3.35669 19.69 4.90669 21.25 6.81669 21.25H18.3967C20.3067 21.25 21.8567 19.7 21.8567 17.79V10.51C21.8567 9.54997 21.1667 8.21997 20.3767 7.67997L14.1967 3.34997C13.0567 2.54997 11.1767 2.58997 10.0867 3.43997Z" fill="#292D32"/>
<path d="M12.6067 18.75C12.1967 18.75 11.8567 18.41 11.8567 18V15C11.8567 14.59 12.1967 14.25 12.6067 14.25C13.0167 14.25 13.3567 14.59 13.3567 15V18C13.3567 18.41 13.0167 18.75 12.6067 18.75Z" fill="#292D32"/>
</svg>
