<svg width="42" height="42" viewBox="0 0 42 42" fill="none" xmlns="http://www.w3.org/2000/svg">
<g clip-path="url(#clip0_2_131)">
<path d="M0.8974 8.77959C0.988297 8.3414 1.06422 7.89867 1.17437 7.46616C1.6211 5.68236 2.57714 4.08913 3.91117 2.90533C5.2452 1.72152 6.89178 1.0052 8.62474 0.854758C8.98298 0.821837 9.3455 0.799133 9.70267 0.799133C17.5854 0.799133 25.4682 0.799133 33.3509 0.799133C37.3718 0.799133 40.7136 3.59967 41.6664 7.74769C42.7818 12.6041 39.7416 17.6341 35.1208 18.5639C34.5854 18.6737 34.0416 18.731 33.4964 18.7353C30.3481 18.7512 27.2009 18.7432 24.0527 18.7432C23.9864 18.7432 23.9201 18.7364 23.7875 18.7296V18.2846C23.7875 16.113 23.7982 13.9425 23.7875 11.772C23.7714 9.07247 22.1225 6.84521 19.6778 6.19133C16.6301 5.37626 13.5343 7.62849 13.1343 10.9592C13.093 11.298 13.0715 11.6392 13.0702 11.9808C13.0637 14.0662 13.0702 16.1516 13.0702 18.2381V18.7534H12.4585C11.3378 18.7534 10.2128 18.7614 9.09741 18.7455C5.37703 18.6933 2.01597 15.8258 1.1487 11.9729C1.05674 11.5835 0.978673 11.2044 0.8974 10.8229V8.77959ZM30.1738 10.9694C29.6391 10.387 29.1461 9.83419 28.6307 9.29724C28.5201 9.17875 28.3885 9.0847 28.2435 9.02052C28.0985 8.95633 27.943 8.92329 27.7859 8.92329C27.6288 8.92329 27.4732 8.95633 27.3282 9.02052C27.1832 9.0847 27.0516 9.17875 26.9411 9.29724C26.4706 9.80126 26.4663 10.5528 26.9582 11.0886C27.7424 11.94 28.5345 12.7823 29.3344 13.6155C29.8295 14.1309 30.5299 14.1513 31.0218 13.6348C32.6345 11.9411 34.2385 10.2383 35.834 8.52644C36.0449 8.30385 36.1693 8.00538 36.1828 7.69007C36.1962 7.37475 36.0977 7.06555 35.9068 6.82364C35.4662 6.25036 34.6406 6.22766 34.1049 6.79526C32.8066 8.15863 31.5202 9.54017 30.1738 10.9694Z" fill="#1D4D4F"/>
<path d="M21.3888 21.4734C22.6871 21.6164 23.9446 21.7515 25.2022 21.8968C26.6042 22.058 28.0158 22.1636 29.406 22.4088C31.0731 22.7039 32.2676 24.2943 32.2719 26.0891C32.2805 29.0678 32.2719 32.0466 32.2719 35.0254C32.2719 35.1389 32.2612 35.2467 32.2537 35.3909C32.1115 35.3977 31.9821 35.4102 31.8527 35.4102C26.2919 35.4102 20.7312 35.4068 15.1704 35.4C14.9369 35.3925 14.7119 35.3053 14.5288 35.1514C12.6606 33.511 10.8009 31.8536 8.93698 30.2008C8.0248 29.3925 7.65373 28.3538 7.9061 27.1357C8.15847 25.9177 8.89314 25.1401 10.031 24.8483C10.9848 24.6031 11.8489 24.8574 12.5975 25.5294C13.423 26.2707 14.2539 27.0052 15.0827 27.7397C15.1832 27.8282 15.2891 27.9088 15.4591 28.0484V27.5342C15.4591 22.2578 15.4591 16.9814 15.4591 11.705C15.4591 10.2292 16.351 9.04066 17.692 8.66264C19.5099 8.1518 21.3664 9.6355 21.376 11.6346C21.391 14.7405 21.3813 17.8464 21.3813 20.9534L21.3888 21.4734Z" fill="#1D4D4F"/>
<path d="M32.2719 37.9542C32.2719 38.8624 32.2901 39.7444 32.2655 40.622C32.2494 41.1952 31.8196 41.6436 31.2453 41.7572C31.1012 41.7827 30.9551 41.7941 30.809 41.7912C26.1807 41.7912 21.5532 41.7912 16.9263 41.7912C16.4526 41.7912 16.0109 41.7027 15.7222 41.2679C15.5859 41.0778 15.5016 40.8516 15.4784 40.614C15.4506 39.7365 15.4677 38.8579 15.4677 37.9463L32.2719 37.9542Z" fill="#1D4D4F"/>
</g>
<defs>
<clipPath id="clip0_2_131">
<rect width="41" height="41" fill="white" transform="translate(0.8974 0.799133)"/>
</clipPath>
</defs>
</svg>
