<svg width="25" height="24" viewBox="0 0 25 24" fill="none" xmlns="http://www.w3.org/2000/svg">
<path d="M15.9603 21.4099C15.5303 21.4099 15.1003 21.3199 14.7503 21.1499L9.50034 18.5199C9.20034 18.3699 8.61034 18.3799 8.32034 18.5499L5.96034 19.8999C4.94034 20.4799 3.89034 20.5599 3.10034 20.0899C2.30034 19.6299 1.85034 18.6899 1.85034 17.5099V7.78991C1.85034 6.87991 2.45034 5.84991 3.24034 5.39991L7.57034 2.91991C8.30034 2.49991 9.41034 2.46991 10.1603 2.84991L15.4103 5.47991C15.7103 5.62991 16.2903 5.60991 16.5903 5.44991L18.9403 4.10991C19.9603 3.52991 21.0103 3.44991 21.8003 3.91991C22.6003 4.37991 23.0503 5.31991 23.0503 6.49991V16.2299C23.0503 17.1399 22.4503 18.1699 21.6603 18.6199L17.3303 21.0999C16.9503 21.2999 16.4503 21.4099 15.9603 21.4099ZM8.95034 16.9199C9.38034 16.9199 9.81034 17.0099 10.1603 17.1799L15.4103 19.8099C15.7103 19.9599 16.2903 19.9399 16.5903 19.7799L20.9203 17.2999C21.2403 17.1199 21.5503 16.5799 21.5503 16.2199V6.48991C21.5503 5.85991 21.3703 5.38991 21.0403 5.20991C20.7203 5.02991 20.2203 5.09991 19.6803 5.40991L17.3303 6.74991C16.6003 7.16991 15.4903 7.19991 14.7403 6.81991L9.49034 4.18991C9.19034 4.03991 8.61034 4.05991 8.31034 4.21991L3.98034 6.69991C3.66034 6.87991 3.35034 7.41991 3.35034 7.78991V17.5199C3.35034 18.1499 3.53034 18.6199 3.85034 18.7999C4.17034 18.9899 4.67034 18.9099 5.22034 18.5999L7.57034 17.2599C7.96034 17.0299 8.46034 16.9199 8.95034 16.9199Z" fill="#292D32"/>
<path d="M8.87036 17.75C8.46036 17.75 8.12036 17.41 8.12036 17V4C8.12036 3.59 8.46036 3.25 8.87036 3.25C9.28036 3.25 9.62036 3.59 9.62036 4V17C9.62036 17.41 9.28036 17.75 8.87036 17.75Z" fill="#292D32"/>
<path d="M16.0403 20.7501C15.6303 20.7501 15.2903 20.4101 15.2903 20.0001V6.62012C15.2903 6.21012 15.6303 5.87012 16.0403 5.87012C16.4503 5.87012 16.7903 6.21012 16.7903 6.62012V20.0001C16.7903 20.4101 16.4503 20.7501 16.0403 20.7501Z" fill="#292D32"/>
</svg>
