<svg width="21" height="20" viewBox="0 0 21 20" fill="none" xmlns="http://www.w3.org/2000/svg">
<path opacity="0.4" d="M16.3336 12.075L15.5002 10.6916C15.3252 10.3833 15.1669 9.79996 15.1669 9.45829V7.34996C15.1669 4.63329 12.9586 2.41663 10.2336 2.41663C7.50858 2.41663 5.30025 4.63329 5.30025 7.34996V9.45829C5.30025 9.79996 5.14191 10.3833 4.96691 10.6833L4.12525 12.075C3.79191 12.6333 3.71691 13.25 3.92525 13.8166C4.12525 14.375 4.60025 14.8083 5.21691 15.0166C6.83358 15.5666 8.53358 15.8333 10.2336 15.8333C11.9336 15.8333 13.6336 15.5666 15.2502 15.025C15.8336 14.8333 16.2836 14.3916 16.5002 13.8166C16.7169 13.2416 16.6586 12.6083 16.3336 12.075Z" fill="#007BFF"/>
<path d="M12.0919 2.76663C11.5169 2.54163 10.8919 2.41663 10.2335 2.41663C9.58355 2.41663 8.95854 2.53329 8.38354 2.76663C8.74188 2.09163 9.45021 1.66663 10.2335 1.66663C11.0252 1.66663 11.7252 2.09163 12.0919 2.76663Z" fill="#007BFF"/>
<path d="M12.575 16.675C12.225 17.6416 11.3 18.3333 10.2167 18.3333C9.55837 18.3333 8.90837 18.0666 8.45003 17.5916C8.18337 17.3416 7.98337 17.0083 7.8667 16.6666C7.97503 16.6833 8.08337 16.6916 8.20003 16.7083C8.3917 16.7333 8.5917 16.7583 8.7917 16.775C9.2667 16.8166 9.75003 16.8416 10.2334 16.8416C10.7084 16.8416 11.1834 16.8166 11.65 16.775C11.825 16.7583 12 16.75 12.1667 16.725C12.3 16.7083 12.4334 16.6916 12.575 16.675Z" fill="#007BFF"/>
</svg>
