<svg width="25" height="24" viewBox="0 0 25 24" fill="none" xmlns="http://www.w3.org/2000/svg">
<path d="M19.7035 8C21.3603 8 22.7035 6.65685 22.7035 5C22.7035 3.34315 21.3603 2 19.7035 2C18.0466 2 16.7035 3.34315 16.7035 5C16.7035 6.65685 18.0466 8 19.7035 8Z" fill="#007BFF"/>
<path opacity="0.4" d="M19.7035 9.5C17.2235 9.5 15.2035 7.48 15.2035 5C15.2035 4.28 15.3935 3.61 15.6935 3H8.22349C4.77349 3 2.70349 5.06 2.70349 8.52V16.47C2.70349 19.94 4.77349 22 8.22349 22H16.1735C19.6335 22 21.6935 19.94 21.6935 16.48V9.01C21.0935 9.31 20.4235 9.5 19.7035 9.5Z" fill="#007BFF"/>
<path d="M12.4535 14H7.45349C7.04349 14 6.70349 13.66 6.70349 13.25C6.70349 12.84 7.04349 12.5 7.45349 12.5H12.4535C12.8635 12.5 13.2035 12.84 13.2035 13.25C13.2035 13.66 12.8635 14 12.4535 14Z" fill="#292D32"/>
<path d="M16.4535 18H7.45349C7.04349 18 6.70349 17.66 6.70349 17.25C6.70349 16.84 7.04349 16.5 7.45349 16.5H16.4535C16.8635 16.5 17.2035 16.84 17.2035 17.25C17.2035 17.66 16.8635 18 16.4535 18Z" fill="#292D32"/>
</svg>
