<svg width="25" height="24" viewBox="0 0 25 24" fill="none" xmlns="http://www.w3.org/2000/svg">
<path d="M11.0137 20.75C5.63367 20.75 1.26367 16.38 1.26367 11C1.26367 5.62 5.63367 1.25 11.0137 1.25C16.3937 1.25 20.7637 5.62 20.7637 11C20.7637 16.38 16.3937 20.75 11.0137 20.75ZM11.0137 2.75C6.46367 2.75 2.76367 6.45 2.76367 11C2.76367 15.55 6.46367 19.25 11.0137 19.25C15.5637 19.25 19.2637 15.55 19.2637 11C19.2637 6.45 15.5637 2.75 11.0137 2.75Z" fill="#292D32"/>
<path d="M20.1738 22.79C20.0938 22.79 20.0138 22.78 19.9438 22.77C19.4738 22.71 18.6238 22.39 18.1438 20.96C17.8938 20.21 17.9838 19.46 18.3938 18.89C18.8038 18.32 19.4938 18 20.2838 18C21.3038 18 22.1038 18.39 22.4638 19.08C22.8238 19.77 22.7238 20.65 22.1538 21.5C21.4438 22.57 20.6738 22.79 20.1738 22.79ZM19.5738 20.49C19.7438 21.01 19.9838 21.27 20.1438 21.29C20.3038 21.31 20.6038 21.12 20.9138 20.67C21.2038 20.24 21.2238 19.93 21.1538 19.79C21.0838 19.65 20.8038 19.5 20.2838 19.5C19.9738 19.5 19.7438 19.6 19.6138 19.77C19.4938 19.94 19.4738 20.2 19.5738 20.49Z" fill="#292D32"/>
</svg>
