<svg width="25" height="24" viewBox="0 0 25 24" fill="none" xmlns="http://www.w3.org/2000/svg">
<path opacity="0.4" d="M12.1929 19C16.0589 19 19.1929 15.866 19.1929 12C19.1929 8.13401 16.0589 5 12.1929 5C8.32688 5 5.19287 8.13401 5.19287 12C5.19287 15.866 8.32688 19 12.1929 19Z" fill="#007BFF"/>
<path d="M12.1929 22.96C11.6429 22.96 11.1929 22.55 11.1929 22V21.92C11.1929 21.37 11.6429 20.92 12.1929 20.92C12.7429 20.92 13.1929 21.37 13.1929 21.92C13.1929 22.47 12.7429 22.96 12.1929 22.96ZM19.3329 20.14C19.0729 20.14 18.8229 20.04 18.6229 19.85L18.4929 19.72C18.1029 19.33 18.1029 18.7 18.4929 18.31C18.8829 17.92 19.5129 17.92 19.9029 18.31L20.0329 18.44C20.4229 18.83 20.4229 19.46 20.0329 19.85C19.8429 20.04 19.5929 20.14 19.3329 20.14ZM5.05287 20.14C4.79287 20.14 4.54287 20.04 4.34287 19.85C3.95287 19.46 3.95287 18.83 4.34287 18.44L4.47287 18.31C4.86287 17.92 5.49287 17.92 5.88287 18.31C6.27287 18.7 6.27287 19.33 5.88287 19.72L5.75287 19.85C5.56287 20.04 5.30287 20.14 5.05287 20.14ZM22.1929 13H22.1129C21.5629 13 21.1129 12.55 21.1129 12C21.1129 11.45 21.5629 11 22.1129 11C22.6629 11 23.1529 11.45 23.1529 12C23.1529 12.55 22.7429 13 22.1929 13ZM2.27287 13H2.19287C1.64287 13 1.19287 12.55 1.19287 12C1.19287 11.45 1.64287 11 2.19287 11C2.74287 11 3.23287 11.45 3.23287 12C3.23287 12.55 2.82287 13 2.27287 13ZM19.2029 5.99C18.9429 5.99 18.6929 5.89 18.4929 5.7C18.1029 5.31 18.1029 4.68 18.4929 4.29L18.6229 4.16C19.0129 3.77 19.6429 3.77 20.0329 4.16C20.4229 4.55 20.4229 5.18 20.0329 5.57L19.9029 5.7C19.7129 5.89 19.4629 5.99 19.2029 5.99ZM5.18287 5.99C4.92287 5.99 4.67287 5.89 4.47287 5.7L4.34287 5.56C3.95287 5.17 3.95287 4.54 4.34287 4.15C4.73287 3.76 5.36287 3.76 5.75287 4.15L5.88287 4.28C6.27287 4.67 6.27287 5.3 5.88287 5.69C5.69287 5.89 5.43287 5.99 5.18287 5.99ZM12.1929 3.04C11.6429 3.04 11.1929 2.63 11.1929 2.08V2C11.1929 1.45 11.6429 1 12.1929 1C12.7429 1 13.1929 1.45 13.1929 2C13.1929 2.55 12.7429 3.04 12.1929 3.04Z" fill="#007BFF"/>
</svg>
