<svg width="25" height="24" viewBox="0 0 25 24" fill="none" xmlns="http://www.w3.org/2000/svg">
<path d="M12.5802 11.62C12.5502 11.62 12.5302 11.62 12.5002 11.62C12.4502 11.61 12.3802 11.61 12.3202 11.62C9.42022 11.53 7.23022 9.25 7.23022 6.44C7.23022 3.58 9.56022 1.25 12.4202 1.25C15.2802 1.25 17.6102 3.58 17.6102 6.44C17.6002 9.25 15.4002 11.53 12.6102 11.62C12.6002 11.62 12.5902 11.62 12.5802 11.62ZM12.4202 2.75C10.3902 2.75 8.73023 4.41 8.73023 6.44C8.73023 8.44 10.2902 10.05 12.2802 10.12C12.3302 10.11 12.4702 10.11 12.6002 10.12C14.5602 10.03 16.1002 8.42 16.1102 6.44C16.1102 4.41 14.4502 2.75 12.4202 2.75Z" fill="#292D32"/>
<path d="M12.5903 22.55C10.6303 22.55 8.66026 22.05 7.17026 21.05C5.78026 20.13 5.02026 18.87 5.02026 17.5C5.02026 16.13 5.78026 14.86 7.17026 13.93C10.1703 11.94 15.0303 11.94 18.0103 13.93C19.3903 14.85 20.1603 16.11 20.1603 17.48C20.1603 18.85 19.4003 20.12 18.0103 21.05C16.5103 22.05 14.5503 22.55 12.5903 22.55ZM8.00026 15.19C7.04026 15.83 6.52026 16.65 6.52026 17.51C6.52026 18.36 7.05026 19.18 8.00026 19.81C10.4903 21.48 14.6903 21.48 17.1803 19.81C18.1403 19.17 18.6603 18.35 18.6603 17.49C18.6603 16.64 18.1303 15.82 17.1803 15.19C14.6903 13.53 10.4903 13.53 8.00026 15.19Z" fill="#292D32"/>
</svg>
