<svg width="25" height="24" viewBox="0 0 25 24" fill="none" xmlns="http://www.w3.org/2000/svg">
<path d="M18.16 22.6699C17.63 22.6699 16.95 22.4999 16.1 21.9999L13.11 20.2299C12.8 20.0499 12.2 20.0499 11.9 20.2299L8.9 21.9999C7.13 23.0499 6.09 22.6299 5.62 22.2899C5.16 21.9499 4.44 21.0799 4.91 19.0799L5.62 16.0099C5.7 15.6899 5.54 15.1399 5.3 14.8999L2.82 12.4199C1.58 11.1799 1.68 10.1199 1.85 9.59995C2.02 9.07995 2.56 8.15995 4.28 7.86995L7.47 7.33995C7.77 7.28995 8.2 6.96995 8.33 6.69995L10.1 3.16995C10.9 1.55995 11.95 1.31995 12.5 1.31995C13.05 1.31995 14.1 1.55995 14.9 3.16995L16.66 6.68995C16.8 6.95995 17.23 7.27995 17.53 7.32995L20.72 7.85995C22.45 8.14995 22.99 9.06995 23.15 9.58995C23.31 10.1099 23.41 11.1699 22.18 12.4099L19.7 14.8999C19.46 15.1399 19.31 15.6799 19.38 16.0099L20.09 19.0799C20.55 21.0799 19.84 21.9499 19.38 22.2899C19.13 22.4699 18.73 22.6699 18.16 22.6699ZM12.5 18.5899C12.99 18.5899 13.48 18.7099 13.87 18.9399L16.86 20.7099C17.73 21.2299 18.28 21.2299 18.49 21.0799C18.7 20.9299 18.85 20.3999 18.63 19.4199L17.92 16.3499C17.73 15.5199 18.04 14.4499 18.64 13.8399L21.12 11.3599C21.61 10.8699 21.83 10.3899 21.73 10.0599C21.62 9.72995 21.16 9.45995 20.48 9.34995L17.29 8.81995C16.52 8.68995 15.68 8.06995 15.33 7.36995L13.57 3.84995C13.25 3.20995 12.85 2.82995 12.5 2.82995C12.15 2.82995 11.75 3.20995 11.44 3.84995L9.67 7.36995C9.32 8.06995 8.48 8.68995 7.71 8.81995L4.53 9.34995C3.85 9.45995 3.39 9.72995 3.28 10.0599C3.17 10.3899 3.4 10.8799 3.89 11.3599L6.37 13.8399C6.97 14.4399 7.28 15.5199 7.09 16.3499L6.38 19.4199C6.15 20.4099 6.31 20.9299 6.52 21.0799C6.73 21.2299 7.27 21.2199 8.15 20.7099L11.14 18.9399C11.52 18.7099 12.01 18.5899 12.5 18.5899Z" fill="#007BFF"/>
</svg>
