<svg width="320" height="300" viewBox="0 0 320 300" fill="none" xmlns="http://www.w3.org/2000/svg">
<g clip-path="url(#clip0_64_17886)">
<path d="M147.871 294.365L155.834 294.364L159.622 264.546L147.869 264.547L147.871 294.365Z" fill="#FFB6B6"/>
<path d="M175.154 294.19C175.402 294.595 175.532 295.904 175.532 296.375C175.532 297.824 174.322 298.999 172.83 298.999H148.168C147.15 298.999 146.325 298.197 146.325 297.209V296.212C146.325 296.212 145.105 293.216 147.616 289.524C147.616 289.524 150.738 292.415 155.403 287.887L156.778 285.468L166.735 292.537L172.254 293.197C173.462 293.341 174.533 293.174 175.154 294.19Z" fill="#2F2E41"/>
<path d="M117.654 294.365L125.617 294.364L129.405 264.546L117.652 264.547L117.654 294.365Z" fill="#FFB6B6"/>
<path d="M144.937 294.19C145.185 294.595 145.316 295.904 145.316 296.375C145.316 297.824 144.106 298.999 142.613 298.999H117.952C116.933 298.999 116.108 298.197 116.108 297.209V296.212C116.108 296.212 114.888 293.216 117.4 289.524C117.4 289.524 120.521 292.415 125.186 287.887L126.561 285.468L136.519 292.537L142.038 293.197C143.245 293.341 144.316 293.174 144.937 294.19Z" fill="#2F2E41"/>
<path d="M111.789 134.191L101.717 156.354L114.475 277.602L130.255 278.58L136.634 171.347L142.678 278.906L161.479 276.95L165.939 140.409L111.789 134.191Z" fill="#2F2E41"/>
<path d="M151.473 45.8626L131.262 42.2773L127.18 46.2399L106.417 54.6629L109.775 117.894C109.775 117.894 103.06 122.237 106.417 128.214C109.775 134.191 109.103 141.361 109.103 141.361H165.939L163.494 105.509L170.208 59.8778L154.518 52.6665L151.473 45.8626Z" fill="#007BFF"/>
<path d="M142.636 40.4274C152.439 40.4274 160.386 32.7128 160.386 23.1963C160.386 13.6799 152.439 5.96533 142.636 5.96533C132.834 5.96533 124.887 13.6799 124.887 23.1963C124.887 32.7128 132.834 40.4274 142.636 40.4274Z" fill="#FFB6B6"/>
<path d="M129.906 38.4926C127.78 38.6771 124.309 33.3964 124.463 28.2823C124.563 24.9923 121.621 24.3454 121.402 20.1025C121.275 17.6302 125.186 16.8594 125.455 14.8765C125.942 11.2836 128.33 8.86594 128.628 8.57203C131.201 6.035 133.017 6.85976 136.043 3.91941C137.865 2.14917 137.398 1.66419 138.625 0.87899C142.166 -1.38713 148.529 1.06891 152.334 4.3773C153.651 5.52213 158.559 4.27089 160.703 7.50379C163.229 11.3127 162.642 19.0806 161.559 20.1057C160.901 20.7286 159.398 19.2069 155.325 18.2303C151.554 17.3262 155.111 21.7975 150.752 21.0472C145.596 20.1599 144.587 18.6373 142.656 19.5505C140.615 20.5159 139.021 23.5051 139.484 25.8549C139.713 27.021 140.379 27.6712 140.004 28.2641C139.318 29.3467 138.532 28.285 137.652 29.3714C136.629 30.635 139.171 33.8768 138.692 34.1899C138.596 34.2529 138.304 34.2447 135.561 31.6833C134.465 30.6605 134.144 30.0324 133.93 30.1288C133.583 30.2849 131.308 32.3416 132.177 33.9657C133.528 36.4932 131.799 36.572 132.177 38.2735C132.567 40.0288 131.258 38.3754 129.906 38.4926Z" fill="#2F2E41"/>
<path d="M148.774 122.212C143.541 124.863 140.708 129.634 142.447 132.867C144.186 136.1 149.837 136.57 155.072 133.917C157.178 132.885 158.999 131.378 160.382 129.523L182.409 118.016L176.627 108.096L155.526 120.493C153.166 120.535 150.851 121.124 148.774 122.212Z" fill="#FFB6B6"/>
<path d="M166.18 60.5297C166.18 60.5297 172.223 56.6185 176.252 67.0484C179.43 75.2767 185.325 99.5308 187.672 109.403C188.295 112.024 187.394 114.762 185.323 116.549L182.631 118.872L169.537 128.324L160.609 115.712L171.452 109.366L159.087 83.3247L166.18 60.5297Z" fill="#007BFF"/>
<path d="M166.42 114.462V101.094C166.42 100.323 167.066 99.6956 167.86 99.6956H174.524C175.318 99.6956 175.964 100.323 175.964 101.094V114.462C175.964 115.232 175.318 115.86 174.524 115.86H167.86C167.066 115.86 166.42 115.232 166.42 114.462Z" fill="#007BFF"/>
<path d="M261.645 92.947C272.545 92.947 281.382 84.3687 281.382 73.7868C281.382 63.205 272.545 54.6267 261.645 54.6267C250.745 54.6267 241.908 63.205 241.908 73.7868C241.908 84.3687 250.745 92.947 261.645 92.947Z" fill="#FF6884"/>
<path d="M242.154 195.289L219.851 195.588L210.91 98.8001C210.693 96.4509 211.474 94.0756 213.054 92.2835L234.985 67.4112C238.055 63.9297 243.275 63.3016 247.127 65.9514L274.595 84.8441C276.835 86.3853 278.224 88.7951 278.404 91.4554L298.454 156.847L295.765 178.655L295.791 178.685L298.97 194.529L242.154 195.289Z" fill="#E6E6E6"/>
<path d="M237.482 89.9162L237.123 85.4239C237.028 84.2381 237.945 83.1985 239.166 83.1065L245.668 82.6166C246.89 82.5246 247.96 83.4145 248.055 84.6003L248.414 89.0926C248.509 90.2783 247.592 91.3179 246.371 91.4099L239.869 91.8998C238.648 91.9918 237.577 91.102 237.482 89.9162Z" fill="#007BFF"/>
<path d="M226.527 125.821L225.198 109.2C225.103 108.015 226.02 106.975 227.241 106.883L236.866 106.158C238.088 106.066 239.159 106.956 239.253 108.142L240.582 124.763C240.677 125.948 239.76 126.988 238.539 127.08L228.914 127.805C227.692 127.897 226.622 127.007 226.527 125.821Z" fill="#3F3D56"/>
<path d="M251.394 163.088C250.227 163.136 249.216 162.29 249.091 161.163L247.32 145.135C247.245 144.451 247.499 143.79 248.019 143.323C248.539 142.855 249.237 142.66 249.934 142.784L250.431 142.873C251.419 143.051 252.164 143.855 252.241 144.827L253.516 160.766C253.563 161.355 253.366 161.923 252.963 162.365C252.577 162.787 252.051 163.04 251.475 163.083C251.448 163.086 251.421 163.087 251.394 163.088Z" fill="#3F3D56"/>
<path d="M231.022 162.393L229.689 145.724C229.595 144.547 230.469 143.531 231.678 143.411L240.41 142.545C241.621 142.437 242.715 143.284 242.845 144.462L244.698 161.3C244.763 161.885 244.585 162.456 244.197 162.908C243.81 163.36 243.265 163.634 242.661 163.68L233.409 164.377C232.187 164.469 231.116 163.579 231.022 162.393Z" fill="#3F3D56"/>
<path d="M283.64 169.888L291.442 181.205L293.293 194.454L298.78 194.379L295.646 178.753L283.189 164.439C282.354 166.208 282.525 168.271 283.64 169.888Z" fill="#CCCCCC"/>
<path d="M292.77 190.662L270.539 192.634L270.568 192.936L292.798 190.964L292.77 190.662Z" fill="#3F3D56"/>
<path d="M291.206 188.087L270.118 189.837L270.145 190.14L291.232 188.39L291.206 188.087Z" fill="#3F3D56"/>
<path d="M289.892 185.435L269.739 187.338L269.77 187.641L289.922 185.738L289.892 185.435Z" fill="#3F3D56"/>
<path d="M289.048 182.763L269.715 184.848L269.75 185.15L289.083 183.065L289.048 182.763Z" fill="#3F3D56"/>
<path d="M287.917 180.412L269.346 182.45L269.381 182.753L287.953 180.714L287.917 180.412Z" fill="#3F3D56"/>
<path d="M286.503 178.374L268.365 179.741L268.389 180.044L286.527 178.677L286.503 178.374Z" fill="#3F3D56"/>
<path d="M285.394 176.317L267.782 177.846L267.81 178.149L285.422 176.62L285.394 176.317Z" fill="#3F3D56"/>
<path d="M284.284 174.267L267.247 176.105L267.282 176.407L284.318 174.57L284.284 174.267Z" fill="#3F3D56"/>
<path d="M283.493 172.203L266.649 173.761L266.679 174.064L283.523 172.506L283.493 172.203Z" fill="#3F3D56"/>
<path d="M282.073 170.197L265.962 171.904L265.996 172.206L282.107 170.5L282.073 170.197Z" fill="#3F3D56"/>
<path d="M281.304 168.394L265.309 169.752L265.336 170.055L281.332 168.697L281.304 168.394Z" fill="#3F3D56"/>
<path d="M263.628 163.445L261.984 142.882C261.889 141.696 262.806 140.656 264.027 140.564L274.277 139.792C275.498 139.7 276.569 140.59 276.664 141.776L278.308 162.339C278.403 163.524 277.486 164.564 276.265 164.656L266.015 165.428C264.793 165.52 263.723 164.63 263.628 163.445Z" fill="#007BFF"/>
<path d="M242.154 195.29L223.92 195.535L223.773 195.537L222.683 181.905C222.546 180.181 223.878 178.669 225.654 178.535L243.576 177.185C245.351 177.052 246.908 178.345 247.046 180.069L248.226 194.832L248.07 194.844L242.154 195.29Z" fill="#CCCCCC"/>
<path d="M261.896 126.055L260.64 110.343C260.545 109.158 261.461 108.118 262.683 108.026L266.061 107.771C267.283 107.679 268.353 108.569 268.448 109.755L269.704 125.467C269.799 126.652 268.882 127.692 267.661 127.784L264.283 128.038C263.061 128.13 261.99 127.24 261.896 126.055Z" fill="#3F3D56"/>
<path d="M270.836 194.654L268.833 181.383L265.003 168.86L263.944 165.432C262.254 164.493 260.188 165.834 260.435 167.708L260.631 169.189L264.46 181.713L266.463 194.984" fill="#CCCCCC"/>
<path d="M46.3887 197.736L24.086 198.034L15.1445 101.246C14.9275 98.8969 15.7092 96.5216 17.2892 94.7296L39.2197 69.8572C42.2897 66.3758 47.5095 65.7476 51.3619 68.3975L78.8294 87.2901C81.0702 88.8313 82.4589 91.2411 82.639 93.9014L102.689 159.293L99.9999 181.101L100.026 181.131L103.204 196.975L46.3887 197.736Z" fill="#E6E6E6"/>
<path d="M41.7171 92.362L41.3579 87.8697C41.2631 86.6839 42.1798 85.6443 43.4012 85.5523L49.9029 85.0624C51.1244 84.9704 52.1951 85.8603 52.2899 87.0461L52.649 91.5384C52.7438 92.7241 51.8273 93.7637 50.6059 93.8558L44.1042 94.3456C42.8827 94.4376 41.8119 93.5478 41.7171 92.362Z" fill="#007BFF"/>
<path d="M30.7616 128.267L29.4329 111.647C29.3381 110.461 30.2547 109.421 31.4762 109.329L41.1013 108.604C42.3228 108.512 43.3935 109.402 43.4883 110.588L44.817 127.209C44.9118 128.394 43.9953 129.434 42.7739 129.526L33.1487 130.251C31.9273 130.343 30.8564 129.453 30.7616 128.267Z" fill="#3F3D56"/>
<path d="M55.6287 165.534C54.4621 165.582 53.4508 164.736 53.326 163.609L51.5551 147.581C51.4795 146.897 51.7343 146.237 52.2542 145.769C52.7741 145.301 53.472 145.106 54.169 145.23L54.6658 145.319C55.654 145.497 56.3985 146.301 56.4763 147.273L57.7505 163.212C57.7975 163.801 57.6011 164.369 57.1975 164.811C56.8118 165.233 56.2859 165.486 55.7094 165.53C55.6826 165.532 55.6557 165.533 55.6287 165.534Z" fill="#3F3D56"/>
<path d="M35.2564 164.839L33.9238 148.17C33.8297 146.993 34.7036 145.977 35.9131 145.857L44.6448 144.991C45.8561 144.883 46.9502 145.73 47.0801 146.908L48.9331 163.746C48.9974 164.331 48.8196 164.902 48.4323 165.354C48.0453 165.806 47.4995 166.08 46.8957 166.125L37.6435 166.823C36.4221 166.915 35.3512 166.025 35.2564 164.839Z" fill="#3F3D56"/>
<path d="M87.8746 172.334L95.6773 183.651L97.5283 196.9L103.015 196.825L99.8804 181.199L87.4241 166.885C86.5892 168.654 86.7597 170.717 87.8746 172.334Z" fill="#CCCCCC"/>
<path d="M97.0045 193.107L74.7742 195.079L74.8027 195.382L97.033 193.41L97.0045 193.107Z" fill="#3F3D56"/>
<path d="M95.4405 190.533L74.3531 192.283L74.3798 192.586L95.4672 190.836L95.4405 190.533Z" fill="#3F3D56"/>
<path d="M94.1269 187.881L73.9741 189.784L74.0045 190.087L94.1573 188.184L94.1269 187.881Z" fill="#3F3D56"/>
<path d="M93.2828 185.209L73.9502 187.294L73.9848 187.596L93.3175 185.511L93.2828 185.209Z" fill="#3F3D56"/>
<path d="M92.1521 182.858L73.5804 184.896L73.6157 185.199L92.1874 183.16L92.1521 182.858Z" fill="#3F3D56"/>
<path d="M90.7376 180.82L72.5995 182.187L72.6237 182.49L90.7618 181.123L90.7376 180.82Z" fill="#3F3D56"/>
<path d="M89.6286 178.763L72.0172 180.292L72.0451 180.595L89.6565 179.066L89.6286 178.763Z" fill="#3F3D56"/>
<path d="M88.5186 176.713L71.4819 178.551L71.5165 178.853L88.5532 177.016L88.5186 176.713Z" fill="#3F3D56"/>
<path d="M87.7278 174.649L70.884 176.208L70.9138 176.51L87.7575 174.952L87.7278 174.649Z" fill="#3F3D56"/>
<path d="M86.3081 172.643L70.1973 174.35L70.2313 174.652L86.3421 172.945L86.3081 172.643Z" fill="#3F3D56"/>
<path d="M85.5391 170.84L69.5437 172.198L69.571 172.501L85.5664 171.143L85.5391 170.84Z" fill="#3F3D56"/>
<path d="M67.8626 165.891L66.2188 145.328C66.124 144.142 67.0406 143.102 68.2621 143.01L78.5119 142.238C79.7333 142.146 80.8041 143.036 80.8989 144.222L82.5427 164.785C82.6375 165.97 81.721 167.01 80.4996 167.102L70.2498 167.874C69.0283 167.966 67.9574 167.076 67.8626 165.891Z" fill="#007BFF"/>
<path d="M46.3887 197.735L28.155 197.98L28.008 197.982L26.9182 184.351C26.7804 182.627 28.113 181.115 29.8889 180.981L47.8104 179.631C49.5862 179.497 51.1431 180.791 51.2809 182.515L52.4611 197.278L52.305 197.29L46.3887 197.735Z" fill="#CCCCCC"/>
<path d="M66.1304 128.501L64.8744 112.789C64.7796 111.604 65.6963 110.564 66.9177 110.472L70.296 110.217C71.5174 110.125 72.5882 111.015 72.683 112.201L73.939 127.913C74.0338 129.098 73.1173 130.138 71.8958 130.23L68.5176 130.484C67.2961 130.576 66.2252 129.687 66.1304 128.501Z" fill="#3F3D56"/>
<path d="M75.071 197.1L73.0674 183.829L69.2382 171.306L68.1786 167.878C66.4893 166.939 64.4227 168.28 64.67 170.154L64.8654 171.635L68.6946 184.159L70.6982 197.43" fill="#CCCCCC"/>
<path d="M163.992 196.298L141.69 196.596L132.749 99.8082C132.532 97.459 133.313 95.0837 134.893 93.2917L156.824 68.4193C159.894 64.9374 165.113 64.3099 168.966 66.9595L196.433 85.8522C198.674 87.3934 210.729 96.1399 210.91 98.8003L205.181 165.388L217.604 179.663L217.63 179.693L220.808 195.537L163.992 196.298Z" fill="#E6E6E6"/>
<path d="M159.321 90.924L158.962 86.4317C158.867 85.2459 159.784 84.2063 161.006 84.1143L167.507 83.6245C168.729 83.5324 169.799 84.4223 169.894 85.6081L170.253 90.1004C170.348 91.2861 169.431 92.3257 168.21 92.4178L161.708 92.9076C160.487 92.9996 159.416 92.1098 159.321 90.924Z" fill="#007BFF"/>
<path d="M148.366 126.83L147.037 110.209C146.942 109.023 147.859 107.983 149.08 107.891L158.705 107.166C159.927 107.074 160.998 107.964 161.092 109.15L162.421 125.771C162.516 126.956 161.599 127.996 160.378 128.088L150.753 128.813C149.531 128.905 148.461 128.015 148.366 126.83Z" fill="#3F3D56"/>
<path d="M170.071 144.554C169.625 144.956 169.406 145.523 169.471 146.111L171.242 162.139C171.349 163.107 172.218 163.833 173.22 163.792C173.746 163.773 174.221 163.55 174.567 163.171C174.914 162.791 175.083 162.304 175.042 161.798L173.768 145.859C173.701 145.023 173.062 144.333 172.213 144.181L171.716 144.091C171.548 144.061 171.379 144.053 171.214 144.065C170.792 144.097 170.392 144.265 170.071 144.554Z" fill="#3F3D56"/>
<path d="M143.671 165.718C143.202 165.342 142.918 164.81 142.871 164.222L141.597 148.283C141.519 147.31 142.127 146.405 143.075 146.081L143.552 145.918C144.22 145.691 144.941 145.78 145.529 146.164C146.117 146.548 146.474 147.163 146.508 147.85L147.306 163.951C147.362 165.083 146.497 166.071 145.337 166.198C145.31 166.201 145.283 166.203 145.256 166.205C144.68 166.249 144.12 166.077 143.671 165.718Z" fill="#3F3D56"/>
<path d="M205.479 170.896L213.281 182.213L215.132 195.462L220.619 195.387L217.484 179.761L205.028 165.447C204.193 167.216 204.364 169.279 205.479 170.896Z" fill="#CCCCCC"/>
<path d="M214.609 191.669L192.378 193.641L192.407 193.944L214.637 191.972L214.609 191.669Z" fill="#3F3D56"/>
<path d="M213.045 189.095L191.957 190.845L191.984 191.148L213.071 189.398L213.045 189.095Z" fill="#3F3D56"/>
<path d="M211.731 186.443L191.578 188.346L191.608 188.649L211.761 186.746L211.731 186.443Z" fill="#3F3D56"/>
<path d="M210.887 183.771L191.554 185.856L191.589 186.158L210.921 184.073L210.887 183.771Z" fill="#3F3D56"/>
<path d="M209.756 181.42L191.184 183.458L191.22 183.761L209.791 181.722L209.756 181.42Z" fill="#3F3D56"/>
<path d="M208.342 179.382L190.203 180.749L190.228 181.052L208.366 179.685L208.342 179.382Z" fill="#3F3D56"/>
<path d="M207.233 177.325L189.621 178.854L189.649 179.157L207.26 177.628L207.233 177.325Z" fill="#3F3D56"/>
<path d="M206.123 175.275L189.086 177.113L189.121 177.415L206.157 175.578L206.123 175.275Z" fill="#3F3D56"/>
<path d="M205.332 173.211L188.488 174.77L188.518 175.072L205.362 173.514L205.332 173.211Z" fill="#3F3D56"/>
<path d="M203.912 171.205L187.801 172.912L187.835 173.214L203.946 171.508L203.912 171.205Z" fill="#3F3D56"/>
<path d="M203.143 169.402L187.148 170.76L187.175 171.063L203.17 169.705L203.143 169.402Z" fill="#3F3D56"/>
<path d="M185.467 164.453L183.823 143.89C183.728 142.704 184.645 141.664 185.866 141.572L196.116 140.8C197.337 140.708 198.408 141.598 198.503 142.784L200.147 163.347C200.241 164.532 199.325 165.572 198.104 165.664L187.854 166.436C186.632 166.528 185.561 165.638 185.467 164.453Z" fill="#007BFF"/>
<path d="M163.992 196.298L145.759 196.543L145.612 196.544L144.522 182.913C144.384 181.189 145.717 179.677 147.493 179.543L165.415 178.193C167.19 178.059 168.747 179.353 168.885 181.077L170.065 195.84L169.909 195.852L163.992 196.298Z" fill="#CCCCCC"/>
<path d="M183.734 127.063L182.478 111.351C182.384 110.166 183.3 109.126 184.522 109.034L187.9 108.779C189.121 108.687 190.192 109.577 190.287 110.763L191.543 126.474C191.638 127.66 190.721 128.7 189.5 128.792L186.122 129.046C184.9 129.138 183.829 128.249 183.734 127.063Z" fill="#3F3D56"/>
<path d="M192.675 195.662L190.672 182.391L186.842 169.868L185.783 166.44C184.093 165.501 182.027 166.842 182.274 168.716L182.47 170.197L186.299 182.721L188.302 195.992" fill="#CCCCCC"/>
<path d="M319.992 194.122L34.3738 197.717L34.3819 198.325L320 194.731L319.992 194.122Z" fill="#CCCCCC"/>
<path d="M129.786 104.704C136.852 104.704 142.579 99.1443 142.579 92.2857C142.579 85.427 136.852 79.8669 129.786 79.8669C122.721 79.8669 116.994 85.427 116.994 92.2857C116.994 99.1443 122.721 104.704 129.786 104.704Z" fill="#007BFF"/>
<path d="M138.088 79.2026C137.341 78.7785 136.202 78.9987 135.791 79.7873C134.171 82.8993 132.99 86.1569 132.221 89.5293C130.992 88.0593 129.764 86.5893 128.535 85.1192C127.964 84.4352 126.755 84.5424 126.161 85.1192C125.465 85.7954 125.588 86.7382 126.161 87.4239C128.117 89.764 130.072 92.104 132.028 94.444C132.441 94.9382 133.308 95.0172 133.861 94.781C134.53 94.4959 134.802 93.969 134.893 93.2916C135.448 89.1765 136.764 85.1325 138.691 81.4323C139.099 80.6471 138.904 79.6658 138.088 79.2026Z" fill="white"/>
<path d="M136.824 119.529C142.566 120.86 147.927 119.062 148.799 115.515C149.671 111.967 145.723 108.014 139.979 106.684C137.692 106.122 135.3 106.099 133.002 106.619L108.6 101.279L106.263 112.449L130.567 116.527C132.376 117.999 134.521 119.028 136.824 119.529Z" fill="#FFB6B6"/>
<path d="M110.446 57.9222L106.417 54.6628C106.417 54.6628 98.3595 58.5741 97.0165 61.8334C95.6736 65.0927 87.6157 96.3825 87.6157 96.3825C87.6157 96.3825 86.0348 113.531 90.1827 115.712C94.3306 117.894 120.519 116.59 120.519 116.59L122.533 103.553L111.789 99.6418L110.446 57.9222Z" fill="#007BFF"/>
<path d="M271.135 240.507C270.568 239.579 268.116 240.572 267.665 239.73C267.216 238.891 269.494 237.612 270.796 234.691C271.031 234.165 272.511 230.845 271.415 229.821C269.339 227.879 259.839 235.891 256.515 233.269C255.785 232.694 255.275 231.545 253.067 229.68C252.188 228.938 251.657 228.603 251.143 228.728C250.414 228.905 250.356 229.853 249.574 231.716C248.401 234.511 247.707 234.342 247.023 236.572C246.516 238.227 246.632 239.19 246.035 239.377C245.19 239.642 244.412 237.887 243.341 238.044C242.249 238.204 241.588 240.249 241.38 241.779C240.988 244.651 242.074 246.547 242.677 248.539C243.331 250.705 243.72 253.999 242.208 258.661L227.249 299.577C230.552 291.181 240.114 268.166 244.132 259.614C245.292 257.145 246.573 254.64 249.202 253.652C251.734 252.701 255.211 253.269 259.644 252.232C260.162 252.111 261.599 251.756 261.779 250.936C261.929 250.258 261.084 249.879 261.214 249.244C261.388 248.392 263.05 248.381 265.092 247.398C266.532 246.705 267.429 245.881 268.2 245.172C268.433 244.958 271.89 241.742 271.135 240.507Z" fill="#F2F2F2"/>
<path d="M212.283 262.046C211.65 262.049 211.445 263.504 210.889 263.476C210.335 263.448 210.346 261.993 209.245 260.53C209.046 260.266 207.795 258.603 206.961 258.83C205.381 259.259 206.69 266.097 204.405 266.924C203.904 267.106 203.176 267.018 201.596 267.532C200.967 267.736 200.645 267.893 200.56 268.173C200.438 268.572 200.901 268.873 201.617 269.783C202.692 271.149 202.406 271.431 203.336 272.4C204.027 273.119 204.547 273.341 204.469 273.68C204.36 274.159 203.248 274.023 203.018 274.579C202.784 275.146 203.627 276.05 204.341 276.591C205.68 277.606 206.951 277.636 208.133 277.924C209.417 278.237 211.194 279.002 213.115 281.067L229.485 300C226.193 296.004 217.316 284.808 214.152 280.425C213.238 279.16 212.341 277.828 212.601 276.29C212.85 274.809 214.14 273.316 214.895 270.905C214.984 270.623 215.219 269.836 214.856 269.513C214.556 269.246 214.121 269.54 213.837 269.295C213.457 268.966 213.931 268.171 214.023 266.914C214.088 266.028 213.931 265.363 213.795 264.791C213.754 264.618 213.125 262.043 212.283 262.046Z" fill="#F2F2F2"/>
<path d="M224.907 264.797L224.525 261.493L224.7 261.243C225.506 260.085 225.916 258.954 225.921 257.88C225.922 257.709 225.914 257.539 225.906 257.365C225.873 256.676 225.832 255.819 226.292 254.82C226.55 254.264 227.275 252.975 228.364 253.134C228.657 253.174 228.879 253.305 229.048 253.458C229.072 253.42 229.098 253.382 229.125 253.34C229.464 252.838 229.733 252.622 229.992 252.415C230.191 252.255 230.396 252.091 230.718 251.702C230.859 251.531 230.969 251.381 231.062 251.255C231.344 250.874 231.712 250.419 232.361 250.427C233.055 250.459 233.418 251.016 233.659 251.384C234.088 252.042 234.283 252.515 234.412 252.83C234.459 252.944 234.512 253.074 234.539 253.114C234.763 253.433 236.58 253.134 237.264 253.026C238.801 252.777 240.132 252.562 240.68 253.503C241.072 254.176 240.781 255.066 239.786 256.219C239.477 256.578 239.147 256.851 238.855 257.065C239.097 257.205 239.314 257.421 239.402 257.759C239.609 258.56 238.9 259.362 237.295 260.147C236.897 260.343 236.36 260.605 235.608 260.731C235.254 260.79 234.935 260.804 234.663 260.812C234.657 260.965 234.62 261.131 234.524 261.302C234.242 261.805 233.655 262.044 232.771 261.986C231.799 261.937 230.997 261.757 230.291 261.599C229.674 261.462 229.142 261.345 228.725 261.372C227.951 261.433 227.354 262.034 226.654 262.814L224.907 264.797Z" fill="#F2F2F2"/>
<path d="M226.675 245.126L223.48 246.322L223.186 246.222C221.828 245.759 220.597 245.66 219.526 245.928C219.355 245.971 219.187 246.022 219.016 246.073C218.338 246.279 217.495 246.535 216.383 246.356C215.763 246.255 214.295 245.902 214.177 244.838C214.143 244.552 214.217 244.311 214.326 244.114C214.282 244.101 214.237 244.086 214.189 244.071C213.602 243.88 213.32 243.683 213.047 243.492C212.838 243.346 212.622 243.195 212.153 242.991C211.947 242.902 211.769 242.836 211.62 242.781C211.169 242.613 210.623 242.383 210.466 241.771C210.322 241.112 210.784 240.63 211.09 240.31C211.636 239.74 212.059 239.437 212.339 239.236C212.442 239.163 212.557 239.08 212.59 239.044C212.851 238.754 212.093 237.123 211.812 236.508C211.174 235.128 210.622 233.933 211.421 233.18C211.992 232.64 212.953 232.688 214.354 233.329C214.79 233.529 215.146 233.769 215.433 233.99C215.511 233.727 215.671 233.468 215.986 233.3C216.731 232.903 217.71 233.365 218.899 234.673C219.196 234.997 219.593 235.434 219.909 236.108C220.058 236.426 220.153 236.722 220.23 236.976C220.384 236.942 220.559 236.935 220.753 236.982C221.325 237.119 221.713 237.609 221.88 238.454C222.077 239.38 222.101 240.178 222.123 240.882C222.142 241.496 222.161 242.025 222.294 242.41C222.551 243.121 223.301 243.529 224.256 243.988L226.675 245.126Z" fill="#F2F2F2"/>
<path d="M224.907 235.393L224.525 232.09L224.7 231.839C225.506 230.681 225.916 229.55 225.921 228.476C225.922 228.306 225.914 228.135 225.906 227.961C225.873 227.272 225.832 226.415 226.292 225.417C226.55 224.86 227.275 223.571 228.364 223.73C228.657 223.77 228.879 223.901 229.048 224.054C229.072 224.016 229.098 223.978 229.125 223.936C229.464 223.434 229.733 223.218 229.992 223.011C230.191 222.851 230.396 222.687 230.718 222.298C230.859 222.127 230.969 221.977 231.062 221.851C231.344 221.47 231.712 221.015 232.361 221.023C233.055 221.055 233.418 221.612 233.659 221.98C234.088 222.638 234.283 223.111 234.412 223.426C234.459 223.541 234.512 223.67 234.539 223.71C234.763 224.029 236.58 223.73 237.264 223.622C238.801 223.373 240.132 223.158 240.68 224.099C241.072 224.772 240.781 225.662 239.786 226.816C239.477 227.175 239.147 227.447 238.855 227.661C239.097 227.802 239.314 228.017 239.402 228.355C239.609 229.156 238.9 229.958 237.295 230.743C236.897 230.939 236.36 231.201 235.608 231.327C235.254 231.386 234.935 231.4 234.663 231.408C234.657 231.562 234.62 231.728 234.524 231.898C234.242 232.401 233.655 232.64 232.771 232.583C231.799 232.533 230.997 232.353 230.291 232.195C229.674 232.058 229.142 231.941 228.725 231.968C227.951 232.029 227.354 232.63 226.654 233.411L224.907 235.393Z" fill="#F2F2F2"/>
<path d="M228.389 299.523L227.676 299.089L226.844 299.181C226.831 299.106 226.786 298.934 226.718 298.664C226.345 297.187 225.211 292.692 224.264 285.612C223.604 280.67 223.23 275.589 223.152 270.508C223.075 265.419 223.323 261.567 223.522 258.47C223.673 256.135 223.855 253.911 224.034 251.745C224.511 245.957 224.96 240.49 224.626 234.438C224.552 233.087 224.396 230.274 222.704 227.281C221.722 225.546 220.37 224.005 218.684 222.703L219.732 221.424C221.593 222.863 223.089 224.569 224.18 226.497C226.056 229.815 226.225 232.879 226.307 234.352C226.647 240.511 226.193 246.03 225.711 251.874C225.534 254.032 225.351 256.246 225.202 258.572C225.004 261.64 224.759 265.459 224.835 270.483C224.911 275.503 225.28 280.522 225.932 285.401C226.867 292.392 227.985 296.82 228.353 298.275C228.548 299.052 228.589 299.215 228.389 299.523Z" fill="#F2F2F2"/>
<path d="M215.597 225.299C215.528 225.299 215.459 225.297 215.388 225.292C213.955 225.217 212.628 224.385 211.443 222.818C210.888 222.081 210.604 221.24 210.037 219.564C209.949 219.305 209.522 217.994 209.262 216.19C209.092 215.011 209.113 214.518 209.354 214.082C209.621 213.597 210.053 213.259 210.54 213.031C210.518 212.875 210.535 212.714 210.605 212.549C210.892 211.868 211.654 211.957 212.067 212.001C212.276 212.026 212.536 212.06 212.817 212.045C213.259 212.024 213.497 211.897 213.856 211.705C214.201 211.522 214.629 211.294 215.264 211.168C216.516 210.914 217.565 211.259 217.911 211.372C219.731 211.961 220.628 213.334 221.667 214.925C221.874 215.244 222.585 216.405 223.054 217.997C223.392 219.146 223.345 219.656 223.243 220.036C223.036 220.816 222.547 221.263 221.305 222.248C220.009 223.281 219.358 223.797 218.799 224.112C217.499 224.841 216.682 225.299 215.597 225.299Z" fill="#F2F2F2"/>
<path d="M287.423 298.78C287.423 299.082 287.17 299.328 286.859 299.328H0.564069C0.252546 299.328 0 299.082 0 298.78C0 298.478 0.252539 298.232 0.564069 298.232H286.859C287.17 298.232 287.423 298.478 287.423 298.78Z" fill="#E6E6E6"/>
</g>
<defs>
<clipPath id="clip0_64_17886">
<rect width="320" height="300" fill="white"/>
</clipPath>
</defs>
</svg>
